<?xml version="1.0" standalone="no"?><!DOCTYPE svg PUBLIC "-//W3C//DTD SVG 1.1//EN" "http://www.w3.org/Graphics/SVG/1.1/DTD/svg11.dtd"><svg t="1738983580809" class="icon" viewBox="0 0 1024 1024" version="1.1" xmlns="http://www.w3.org/2000/svg" p-id="1943" width="200" height="200" xmlns:xlink="http://www.w3.org/1999/xlink"><path d="M844.008626 302.545594c-0.911766-3.949962-3.64604-9.115612-11.546987-13.065574-3.949962-1.823532-4.253884-4.253884-4.861728-8.203846-0.607844-4.861728-1.51961-13.369495-15.800871-13.369495-6.381337 0-15.193027 1.51961-27.954679 4.557806-19.750833 4.861728-38.285978 11.546987-54.998615 17.623379-19.750833 6.989181-36.767392 13.065574-47.098691 13.065574-6.077416 0-7.596002-2.127454-8.203846-3.038196-2.431376-3.949962-0.303922-6.989181 8.203846-15.193027 10.027377-9.723455 23.396873-22.789029 21.574365-46.490847-0.303922-3.038196-6.685259-76.876901-33.728172-76.876901-0.911766 0-2.127454 0-3.038196 0.303922-3.949962 0.911766-5.773494 3.038196-6.685259 4.861728-3.64604 6.381337-0.303922 16.408715 4.557806 30.386054 11.243065 33.120328 17.927301 61.379952-12.154831 75.965136-4.557806 2.127454-8.81169 3.342118-13.065574 3.342118l0 0c-25.828248 0-40.717354-45.883003-50.744731-76.57298-7.293103-22.48613-10.939143-34.032094-18.839067-34.032094-4.253884 0-7.899924 2.127454-10.027377 6.077416-8.203846 13.673417 0 50.136887 19.750833 86.904279 3.64604 6.685259 6.989181 15.800871 3.038196 22.182208-3.038196 5.16565-10.939143 8.203846-21.270443 8.203846-15.496949 0-40.413432-7.293103-59.556421-27.347858-23.092951-24.004717-26.13217-74.445526-27.954679-107.869776-1.51961-26.436092-2.431376-41.021276-12.154831-41.021276 0 0-0.303922 0-0.607844 0-11.546987 0.607844-11.850909 19.446911-11.850909 41.021276 0 8.203846 0 20.358677-1.51961 24.916483-12.761652-7.293103-51.656497-51.656497-54.086849-91.158163-1.215688-21.878287-9.115612-25.220405-13.673417-25.220405-3.342118 0-6.685259 2.127454-9.419534 5.773494-6.381337 9.419534-8.507768 30.993898 1.51961 55.606459 7.899924 19.446911 26.436092 48.313356 44.363394 75.965136 12.154831 18.839067 23.396873 36.46347 31.601742 51.048653 10.939143 19.750833 10.635221 25.220405 10.331299 26.436092-3.949962 1.51961-8.203846 2.431376-12.761652 2.431376-23.092951 0-48.921199-21.574365-67.457368-56.214303-23.700795-45.883003-29.170366-52.567239-36.767392-52.567239-2.127454 0-3.949962 0.607844-5.16565 1.215688-2.127454 0.911766-3.949962 2.734274-4.557806 5.16565-2.734274 7.899924 3.64604 21.574365 14.281261 42.843784 5.469572 11.243065 17.016559 34.336016 14.585183 38.285978-7.293103-0.303922-30.386054-23.700795-45.579081-39.501666-24.612561-24.004717-38.5899-37.678134-47.705512-37.678134-2.734274 0-4.861728 1.215688-6.381337 3.342118-0.911766 1.215688-1.215688 2.431376-0.911766 3.949962 0.303922 1.215688 6.989181 30.689976 35.551704 61.987796 26.13217 28.866445 76.269058 64.418148 167.123298 72.015174 33.120328 2.734274 63.506383 3.949962 89.638553 3.949962 46.490847 0 70.799486-4.253884 84.168981-6.685259 4.861728-0.911766 8.203846-1.51961 10.635221-1.51961 1.823532 0 2.431376 0.303922 3.64604 1.823532 0.303922 0.303922 0.303922 0.303922 0.303922 0.607844-1.823532 1.51961-8.81169 3.64604-13.977339 5.16565-12.761652 3.64604-30.386054 8.81169-42.236963 21.270443-2.734274 2.734274-10.939143 11.243065-7.596002 18.839067 2.127454 5.16565 8.203846 7.596002 17.623379 7.596002 9.723455 0 23.092951-2.431376 37.071314-6.989181 3.342118-1.215688 4.253884-0.607844 4.557806-0.607844 0.303922 0.303922 0.911766 2.127454-0.607844 6.989181-2.734274 9.115612-12.45773 25.828248-30.689976 43.147706-13.673417 12.761652-35.855626 29.77821-65.937758 37.982056-38.893822 10.331299-92.373851 15.496949-163.476235 15.496949-20.966521 0-39.805588-0.303922-54.998615-0.911766-4.861728 0-9.419534-0.303922-13.369495-0.303922-29.77821-0.607844-62.898539 14.281261-83.561138 37.071314-18.535145 20.358677-27.043936 45.579081-24.308639 72.925916 1.51961 17.320481 3.64604 26.13217 10.635221 26.13217 6.685259 0 9.419534-8.507768 15.800871-29.170366 2.127454-6.989181 5.469572-17.624403 8.203846-23.396873 2.431376 12.761652 3.038196 47.402613-2.431376 88.726787-4.253884 33.120328-15.800871 92.676749-43.75555 118.201076-0.911766 0.911766-1.51961 2.127454-1.51961 3.64604l0 141.598972c0 0.911766 0.303922 1.51961 0.607844 2.430352 2.734274 4.861728 6.381337 13.977339 5.773494 17.320481-1.823532 7.596002-1.215688 25.524327-0.911766 27.650757 0 2.734274 2.127454 4.557806 4.861728 4.557806l42.843784 0 0 0c2.734274 0 4.861728-2.127454 4.861728-4.861728 0-0.607844 0-1.215688-0.303922-1.823532-1.215688-4.557806-9.723455-34.336016-21.878287-60.468187-11.546987-24.612561-5.773494-102.401228-4.861728-114.858958 6.989181-7.596002 44.971238-49.529043 75.357292-75.05337-10.939143 17.320481-19.446911 42.236963-11.546987 72.623018 14.889105 54.998615 54.390771 129.748063 59.252499 138.863674l2.431376 44.363394c0 2.430352 2.127454 4.557806 4.861728 4.557806l41.021276 0c2.734274 0 4.861728-2.127454 4.861728-4.861728 0-1.51961-0.303922-35.247782-18.839067-55.606459-17.623379-19.446911-65.329914-113.035426-54.694693-150.10674 4.253884-15.193027 25.220405-34.639938 60.164265-56.214303 24.004717-14.889105 47.402613-26.13217 52.264341-28.258601l88.422865 1.51961c-0.303922 22.789029-1.823532 120.936373-7.899924 171.07326-6.989181 57.428967-6.077416 116.986411-6.077416 117.594255 0 2.734274 2.127454 4.861728 4.861728 4.861728l41.021276 0 0 0c2.734274 0 4.861728-2.127454 4.861728-4.861728 0-0.911766-0.303922-1.823532-0.607844-2.430352-1.823532-3.949962-13.369495-28.866445-19.750833-47.098691-3.342118-10.027377 4.557806-33.42425 11.850909-53.782927 6.077416-17.624403 11.850909-34.032094 12.154831-45.579081 0.607844-16.712637 6.381337-45.275159 10.027377-61.683874 12.154831 23.092951 38.893822 75.661214 46.794769 104.527658 10.331299 38.285978 38.285978 105.135502 39.501666 108.173698 0.607844 1.823532 2.430352 3.038196 4.557806 3.038196l0.303922 0 43.75555-3.342118c1.823532 0 3.342118-1.215688 3.949962-2.734274s0.607844-3.342118-0.303922-4.861728-24.916483-35.551704-41.021276-48.921199c-5.469572-4.557806-16.712637-47.098691-25.524327-108.47762-8.81169-59.556421-10.939143-107.566878-5.773494-124.278491 5.773494-2.734274 22.789029-11.546987 40.717354-27.043936 28.562523-24.916483 44.971238-54.998615 47.705512-86.904279 5.773494-69.279876 8.203846-143.42148 8.81169-153.75278 4.861728-7.899924 38.5899-62.594617 91.462085-72.621994 1.215688-0.303922 2.127454-0.911766 3.038196-1.823532C838.539055 323.512115 846.438978 313.180815 844.008626 302.545594z" p-id="1944" fill="#d81e06"></path></svg>